<?xml version="1.0" encoding="UTF-8"?>
<svg id="Layer_2" data-name="Layer 2" xmlns="http://www.w3.org/2000/svg" viewBox="0 0 310.17 154.17">
  <defs>
    <style>
      .cls-1 {
        fill: #fbb040;
      }

      .cls-1, .cls-2 {
        stroke-width: 0px;
      }

      .cls-2 {
        fill: #21409a;
      }
    </style>
  </defs>
  <g id="Layer_1-2" data-name="Layer 1">
    <g>
      <path class="cls-2" d="M77.51,3.24v43.56c0,.96.07,1.63.22,2.02.14.38.4.67.76.86l.72.4c.79.46,1.19,1.12,1.19,1.98,0,1.54-.92,2.3-2.77,2.3h-15.95c-.96,0-1.66-.19-2.09-.58-.43-.38-.65-.91-.65-1.58,0-.48.12-.9.36-1.26.24-.36.64-.66,1.19-.9l.79-.36c.36-.17.61-.45.76-.85s.22-1.07.22-2.03V11.3c0-.77-.1-1.31-.31-1.64-.2-.32-.51-.55-.92-.67l-.79-.25c-.5-.17-.87-.41-1.1-.72-.23-.31-.34-.71-.34-1.19,0-.58.16-1.03.47-1.37.31-.34.9-.67,1.76-1.01l7.99-3.1c1.22-.48,2.21-.83,2.97-1.04.76-.22,1.49-.32,2.21-.32,1.08,0,1.9.31,2.47.92.56.61.85,1.39.85,2.32ZM76.21,30.6l-2.16-2.3,1.08-1.01c3.38-3.24,6.32-5.5,8.82-6.79,2.5-1.28,4.79-1.93,6.88-1.93,3.22,0,5.81,1.06,7.78,3.19s2.95,4.9,2.95,8.33v16.7c0,.96.07,1.64.22,2.03.14.4.4.68.76.85l.79.36c.55.24.95.54,1.19.9.24.36.36.78.36,1.26,0,.67-.22,1.2-.65,1.58-.43.38-1.13.58-2.09.58h-15.95c-1.85,0-2.77-.77-2.77-2.3,0-.86.4-1.52,1.19-1.98l.72-.4c.36-.19.61-.48.76-.86.14-.38.22-1.06.22-2.02v-14.54c0-1.54-.35-2.69-1.06-3.46-.71-.77-1.7-1.15-2.97-1.15-.79,0-1.62.16-2.48.47-.86.31-1.63.77-2.3,1.37l-1.26,1.12Z"/>
      <path class="cls-2" d="M128.95,18.58c4.08,0,7.64.77,10.69,2.32,3.05,1.55,5.42,3.71,7.11,6.5s2.54,6.02,2.54,9.72c0,3.41-.89,6.49-2.66,9.25-1.78,2.76-4.23,4.95-7.36,6.57-3.13,1.62-6.76,2.43-10.89,2.43s-7.64-.79-10.69-2.36c-3.05-1.57-5.42-3.75-7.11-6.53s-2.54-6-2.54-9.65.89-6.59,2.66-9.34c1.78-2.75,4.23-4.92,7.36-6.52,3.13-1.6,6.76-2.39,10.89-2.39ZM131.58,50.15c.91-.22,1.61-.85,2.09-1.91.48-1.06.7-2.59.65-4.61-.05-2.02-.41-4.57-1.08-7.67-.62-2.98-1.33-5.4-2.11-7.27-.78-1.87-1.63-3.22-2.54-4.03-.91-.82-1.86-1.1-2.84-.86-.91.22-1.61.85-2.09,1.91s-.69,2.59-.63,4.59c.06,2,.41,4.57,1.06,7.69.62,2.95,1.33,5.37,2.12,7.25.79,1.88,1.64,3.23,2.54,4.03.9.8,1.84,1.1,2.83.88Z"/>
      <path class="cls-2" d="M173.77,54.36h-5.47c-1.03,0-1.93-.24-2.68-.72-.76-.48-1.35-1.31-1.78-2.48l-9.04-24.48c-.31-.89-.59-1.48-.83-1.76-.24-.29-.49-.49-.76-.61l-.76-.36c-.48-.24-.83-.52-1.04-.85-.22-.32-.32-.75-.32-1.28,0-.67.23-1.2.7-1.58.47-.38,1.11-.58,1.93-.58h18.22c.79,0,1.42.19,1.89.58.47.38.7.91.7,1.58,0,.53-.14.95-.41,1.28-.28.32-.73.58-1.35.77l-.97.29c-.53.17-.84.53-.94,1.08-.1.55.13,1.64.68,3.28l6.16,18.07-3.71,2.84,8.42-22.5,4.36,2.77-8.53,21.78c-.46,1.15-1.09,1.92-1.89,2.3-.8.38-1.66.58-2.57.58ZM198.32,54.36h-5.26c-1.01,0-1.9-.25-2.68-.74-.78-.49-1.37-1.31-1.78-2.47l-8.57-24.48c-.31-.89-.59-1.48-.83-1.76-.24-.29-.49-.49-.76-.61l-.76-.36c-.48-.24-.83-.52-1.04-.85-.22-.32-.32-.75-.32-1.28,0-1.44.88-2.16,2.63-2.16h17.78c1.73,0,2.59.72,2.59,2.16,0,.53-.13.97-.4,1.31-.26.35-.64.57-1.12.67l-1.58.29c-.53.1-.82.46-.88,1.1-.06.64.16,1.73.67,3.29l5.83,18.11-3.35,2.84,6.23-19.94c.62-1.92.91-3.25.85-3.98-.06-.73-.4-1.18-1.03-1.35l-.97-.29c-.6-.19-1.04-.45-1.33-.77-.29-.32-.43-.75-.43-1.28,0-.67.23-1.2.7-1.58.47-.38,1.1-.58,1.89-.58h8.35c.82,0,1.46.19,1.93.58.47.38.7.91.7,1.58,0,.46-.11.86-.32,1.21-.22.35-.64.63-1.26.85l-.68.25c-.43.17-.83.62-1.21,1.35-.37.73-.85,1.93-1.42,3.58l-7.7,22.43c-.38,1.13-1,1.89-1.84,2.29-.84.4-1.72.59-2.63.59Z"/>
      <path class="cls-2" d="M84.74,72.29l-1.15-.47c-.53-.22-.92-.49-1.19-.83-.26-.34-.4-.74-.4-1.22,0-.7.23-1.23.7-1.6.47-.37,1.07-.56,1.82-.56h1.98c.46,0,.88-.12,1.28-.36.4-.24.91-.67,1.53-1.3l5.87-5.94c.79-.79,1.53-1.38,2.21-1.76.68-.38,1.34-.58,1.96-.58.7,0,1.24.23,1.64.68.4.46.59,1.12.59,1.98v28.87c0,1.75.3,3.08.9,4,.6.91,1.46,1.37,2.59,1.37.91,0,1.61-.23,2.11-.68.49-.46.89-.98,1.19-1.57.3-.59.62-1.11.95-1.57.34-.46.79-.68,1.37-.68.48,0,.86.17,1.15.5.29.34.43.91.43,1.73,0,2.04-.59,3.89-1.76,5.56-1.18,1.67-2.8,2.99-4.86,3.98-2.06.98-4.42,1.48-7.06,1.48-3.91,0-6.94-.94-9.07-2.83-2.14-1.88-3.2-4.73-3.2-8.55v-17.32c0-.7-.13-1.2-.38-1.51s-.65-.59-1.21-.83ZM96.34,72.72v-5.11h13.14c.74,0,1.34.16,1.78.49.44.32.67.79.67,1.39,0,.91-.44,1.68-1.33,2.3-.89.62-2.35.94-4.39.94h-9.86Z"/>
      <path class="cls-2" d="M135.83,66.53c4.08,0,7.64.77,10.69,2.32,3.05,1.55,5.42,3.71,7.11,6.5s2.54,6.02,2.54,9.72c0,3.41-.89,6.49-2.66,9.25-1.78,2.76-4.23,4.95-7.36,6.57-3.13,1.62-6.76,2.43-10.89,2.43s-7.64-.79-10.69-2.36c-3.05-1.57-5.42-3.75-7.11-6.53s-2.54-6-2.54-9.65.89-6.59,2.66-9.34c1.78-2.75,4.23-4.92,7.36-6.52,3.13-1.6,6.76-2.39,10.89-2.39ZM138.46,98.1c.91-.22,1.61-.85,2.09-1.91.48-1.06.7-2.59.65-4.61-.05-2.02-.41-4.57-1.08-7.67-.62-2.98-1.33-5.4-2.11-7.27-.78-1.87-1.63-3.22-2.54-4.03-.91-.82-1.86-1.1-2.84-.86-.91.22-1.61.85-2.09,1.91s-.69,2.59-.63,4.59c.06,2,.41,4.57,1.06,7.69.62,2.95,1.33,5.37,2.12,7.25.79,1.88,1.64,3.23,2.54,4.03.9.8,1.84,1.1,2.83.88Z"/>
      <path class="cls-1" d="M177.44,91.8v-13.97c0-.77-.1-1.31-.31-1.64-.2-.32-.51-.55-.92-.67l-.79-.25c-.5-.17-.87-.41-1.1-.72-.23-.31-.34-.71-.34-1.19,0-.58.16-1.03.47-1.37.31-.34.9-.67,1.76-1.01l7.99-3.1c1.3-.5,2.32-.86,3.06-1.06.74-.2,1.4-.31,1.98-.31,1.15,0,2.02.31,2.59.92.58.61.86,1.39.86,2.32v19.87c0,1.54.35,2.69,1.06,3.46s1.7,1.15,2.97,1.15c.79,0,1.62-.16,2.48-.47.86-.31,1.63-.77,2.3-1.37l1.26-1.12,2.16,2.3-1.08,1.01c-3.38,3.24-6.32,5.5-8.82,6.79-2.5,1.28-4.79,1.93-6.88,1.93-3.19,0-5.78-1.07-7.76-3.2s-2.97-4.91-2.97-8.32ZM201.24,94.94v-.47h-.54v-16.63c0-.77-.1-1.31-.31-1.64-.2-.32-.51-.55-.92-.67l-.79-.25c-.5-.17-.87-.41-1.1-.72-.23-.31-.34-.71-.34-1.19,0-.58.16-1.03.47-1.37.31-.34.9-.67,1.76-1.01l7.99-3.1c1.22-.48,2.21-.83,2.97-1.04.76-.22,1.49-.32,2.21-.32,1.08,0,1.9.31,2.47.92.56.61.85,1.39.85,2.32v24.98c0,.96.07,1.64.22,2.03s.4.68.76.85l.79.36c.55.24.95.54,1.19.9.24.36.36.78.36,1.26,0,.67-.22,1.2-.65,1.58-.43.38-1.13.58-2.09.58h-8.82c-1.7,0-3.21-.73-4.52-2.2-1.31-1.46-1.96-3.19-1.96-5.18Z"/>
      <path class="cls-1" d="M240.55,71.1c-1.42,0-2.47.3-3.15.9-.68.6-1.03,1.32-1.03,2.16,0,.5.1.98.29,1.42.19.44.64.85,1.33,1.21.7.36,1.8.67,3.31.94,4.46.74,7.86,1.73,10.19,2.97,2.33,1.24,3.92,2.69,4.77,4.37.85,1.68,1.28,3.59,1.28,5.72,0,3.91-1.36,6.98-4.09,9.2-2.72,2.22-6.75,3.33-12.08,3.33-1.82,0-3.28-.14-4.37-.43-1.09-.29-1.97-.58-2.63-.86-.66-.29-1.25-.43-1.78-.43-.58,0-1.06.14-1.44.43-.38.29-.77.58-1.15.86-.38.29-.88.43-1.48.43s-1.05-.17-1.35-.52c-.3-.35-.58-.97-.85-1.85l-1.87-6.37c-.38-1.27-.49-2.27-.32-3.01.17-.73.62-1.24,1.37-1.53.77-.29,1.44-.3,2.02-.04.58.26,1.13.79,1.66,1.58,1.1,1.61,2.25,2.94,3.44,4,1.19,1.06,2.44,1.85,3.74,2.38,1.31.53,2.66.79,4.05.79,1.61,0,2.81-.3,3.62-.9.8-.6,1.21-1.4,1.21-2.41,0-.62-.16-1.16-.49-1.62-.32-.46-.98-.87-1.98-1.24-1-.37-2.5-.74-4.52-1.1-3.48-.62-6.25-1.52-8.3-2.68-2.05-1.16-3.52-2.6-4.41-4.32-.89-1.72-1.33-3.71-1.33-5.99,0-2.42.65-4.53,1.96-6.32,1.31-1.79,3.1-3.17,5.36-4.16,2.27-.98,4.85-1.48,7.76-1.48,1.9,0,3.39.15,4.48.45,1.09.3,1.98.6,2.66.9.68.3,1.36.45,2.03.45s1.19-.15,1.64-.45c.44-.3.88-.6,1.31-.9.43-.3.94-.45,1.51-.45.53,0,.97.19,1.33.58.36.38.62,1.04.79,1.98l1.12,6.16c.22,1.22.23,2.14.05,2.75-.18.61-.62,1.06-1.31,1.35-.74.31-1.4.31-1.98-.02-.58-.32-1.16-.91-1.76-1.75-1.68-2.42-3.44-4.11-5.27-5.06-1.84-.95-3.62-1.42-5.35-1.42Z"/>
      <path class="cls-1" d="M298.26,80.43c0,1.68-.46,2.98-1.37,3.91-.91.92-2.22,1.39-3.92,1.39h-21.35v-3.74h9.61c1.32,0,1.98-.62,1.98-1.87,0-3.02-.35-5.18-1.04-6.48-.7-1.3-1.62-1.94-2.77-1.94-.84,0-1.6.31-2.27.94-.67.62-1.21,1.58-1.6,2.86-.4,1.28-.59,2.91-.59,4.88,0,4.37.98,7.57,2.95,9.59,1.97,2.03,4.66,3.04,8.06,3.04,1.58,0,3.02-.18,4.32-.54,1.3-.36,2.57-1.09,3.82-2.2.7-.62,1.22-1.04,1.58-1.26.36-.22.71-.32,1.04-.32.48,0,.83.24,1.06.72s.34,1.07.34,1.76c0,2.14-.73,4.13-2.18,5.99-1.45,1.86-3.47,3.35-6.05,4.48-2.58,1.13-5.59,1.69-9.02,1.69-3.67,0-6.97-.73-9.9-2.18-2.93-1.45-5.24-3.48-6.95-6.08-1.7-2.6-2.56-5.65-2.56-9.13,0-3.91.78-7.32,2.34-10.22,1.56-2.9,3.83-5.16,6.82-6.77,2.99-1.61,6.59-2.41,10.82-2.41,3.72,0,6.83.6,9.32,1.8,2.5,1.2,4.37,2.84,5.62,4.93,1.25,2.09,1.87,4.48,1.87,7.16Z"/>
      <path class="cls-1" d="M36.11,128.5c0,1.82-.69,3.37-2.07,4.64-1.38,1.27-3.22,1.91-5.53,1.91s-3.91-.59-5.02-1.78c-1.12-1.19-1.67-2.71-1.67-4.55v-1.15c0-1.56-.32-2.79-.97-3.69s-1.5-1.35-2.56-1.35c-.84,0-1.63.31-2.36.94-.73.62-1.33,1.58-1.78,2.86-.46,1.28-.68,2.91-.68,4.88,0,2.78.47,5.11,1.42,6.98.95,1.87,2.25,3.28,3.91,4.23,1.66.95,3.54,1.42,5.65,1.42,1.54,0,2.92-.19,4.16-.56,1.24-.37,2.47-1.1,3.69-2.18.7-.62,1.22-1.04,1.58-1.26.36-.22.71-.32,1.04-.32.48,0,.83.24,1.06.72.23.48.34,1.07.34,1.76,0,2.14-.71,4.13-2.14,5.99-1.43,1.86-3.41,3.35-5.96,4.48-2.54,1.13-5.5,1.69-8.86,1.69-3.67,0-6.97-.73-9.88-2.18s-5.23-3.48-6.93-6.08c-1.7-2.6-2.56-5.65-2.56-9.13,0-3.72.82-7.04,2.47-9.97,1.64-2.93,3.97-5.23,6.98-6.91,3.01-1.68,6.57-2.52,10.67-2.52,3.29,0,6.13.5,8.51,1.49,2.39,1,4.23,2.33,5.53,4.01,1.3,1.68,1.94,3.55,1.94,5.62Z"/>
      <path class="cls-1" d="M40.32,145.49c0-3.29,1.49-5.89,4.46-7.79,2.98-1.91,7.15-2.86,12.53-2.86,1.42,0,2.65.1,3.71.29,1.06.19,1.92.47,2.59.83l-1.22,3.13c-.5-.29-.98-.49-1.42-.61-.44-.12-.93-.18-1.46-.18-1.18,0-2.11.39-2.79,1.17-.68.78-1.03,1.9-1.03,3.37,0,1.54.34,2.71,1.01,3.51s1.56,1.21,2.66,1.21c.7,0,1.35-.16,1.96-.49.61-.32,1.07-.7,1.39-1.13l.86,2.88c-1.15,1.7-2.83,3.02-5.02,3.96-2.2.94-4.54,1.4-7.04,1.4-3.36,0-6.07-.83-8.12-2.48-2.05-1.66-3.08-3.72-3.08-6.19ZM62.32,148.23v-.83l-1.15-.04v-23.26c0-.91-.25-1.64-.74-2.2-.49-.55-1.16-.83-2-.83-.62,0-1.17.15-1.64.45-.47.3-.7.7-.7,1.21v3.92c0,2.02-.69,3.58-2.07,4.68-1.38,1.1-3.35,1.66-5.92,1.66-2.18,0-3.81-.46-4.88-1.39-1.07-.92-1.6-2.21-1.6-3.87s.72-3.17,2.16-4.75,3.61-2.9,6.5-3.96c2.89-1.06,6.53-1.58,10.93-1.58,5.09,0,8.87.93,11.34,2.79,2.47,1.86,3.71,4.4,3.71,7.61v17.21c0,.46.11.83.34,1.13.23.3.58.45,1.06.45.41,0,.74-.11.99-.32.25-.22.49-.43.7-.65.17-.17.34-.31.52-.43.18-.12.39-.18.63-.18.41,0,.7.15.88.45.18.3.27.68.27,1.13,0,1.06-.38,2.17-1.15,3.33-.77,1.16-1.91,2.15-3.44,2.97-1.52.82-3.41,1.22-5.67,1.22-2.66,0-4.84-.56-6.53-1.69-1.69-1.13-2.54-2.54-2.54-4.25Z"/>
      <path class="cls-1" d="M102.31,120.62v24.98c0,.96.07,1.63.22,2.02.14.38.4.67.76.86l.72.4c.79.46,1.19,1.12,1.19,1.98,0,1.54-.92,2.3-2.77,2.3h-15.95c-.96,0-1.66-.19-2.09-.58-.43-.38-.65-.91-.65-1.58,0-.48.12-.9.36-1.26.24-.36.64-.66,1.19-.9l.79-.36c.36-.17.61-.45.76-.85s.22-1.07.22-2.03v-16.92c0-.77-.1-1.31-.31-1.64-.2-.32-.51-.55-.92-.67l-.79-.25c-.5-.17-.87-.41-1.1-.72-.23-.31-.34-.71-.34-1.19,0-.58.16-1.03.47-1.37.31-.34.9-.67,1.76-1.01l7.99-3.1c1.22-.48,2.21-.83,2.97-1.04.76-.22,1.49-.32,2.21-.32,1.08,0,1.9.31,2.47.92.56.61.85,1.39.85,2.32ZM101.02,129.4l-2.16-2.3,1.08-1.01c3.38-3.24,6.29-5.5,8.73-6.79,2.44-1.28,4.7-1.93,6.79-1.93,3.22,0,5.78,1.06,7.69,3.19,1.91,2.12,2.86,4.9,2.86,8.33v16.7c0,.96.07,1.63.22,2.02.14.38.4.67.76.86l.72.4c.79.46,1.19,1.12,1.19,1.98,0,1.54-.92,2.3-2.77,2.3h-15.48c-1.85,0-2.77-.77-2.77-2.3,0-.86.4-1.52,1.19-1.98l.72-.4c.36-.19.61-.48.76-.86.14-.38.22-1.06.22-2.02v-14.54c0-1.54-.32-2.69-.97-3.46-.65-.77-1.61-1.15-2.88-1.15-.79,0-1.59.16-2.39.47-.8.31-1.54.77-2.21,1.37l-1.26,1.12ZM124.7,129.4l-2.16-2.3,1.08-1.01c3.38-3.24,6.29-5.5,8.73-6.79,2.44-1.28,4.7-1.93,6.79-1.93,3.22,0,5.78,1.06,7.69,3.19,1.91,2.12,2.86,4.9,2.86,8.33v16.7c0,.96.07,1.64.22,2.03s.4.68.76.85l.79.36c.55.24.95.54,1.19.9.24.36.36.78.36,1.26,0,.67-.22,1.2-.65,1.58-.43.38-1.13.58-2.09.58h-15.95c-1.85,0-2.77-.77-2.77-2.3,0-.86.4-1.52,1.19-1.98l.72-.4c.36-.19.61-.48.76-.86.14-.38.22-1.06.22-2.02v-14.54c0-1.54-.32-2.69-.97-3.46-.65-.77-1.61-1.15-2.88-1.15-.79,0-1.59.16-2.39.47-.8.31-1.54.77-2.21,1.37l-1.26,1.12Z"/>
      <path class="cls-1" d="M175.03,120.62v24.98c0,.96.07,1.64.22,2.03s.4.68.76.85l.79.36c.55.24.95.54,1.19.9.24.36.36.78.36,1.26,0,.67-.22,1.2-.65,1.58-.43.38-1.13.58-2.09.58h-16.42c-.96,0-1.66-.19-2.09-.58-.43-.38-.65-.91-.65-1.58,0-.48.12-.9.36-1.26.24-.36.64-.66,1.19-.9l.79-.36c.36-.17.61-.45.76-.85s.22-1.07.22-2.03v-16.92c0-.77-.1-1.31-.31-1.64-.2-.32-.51-.55-.92-.67l-.79-.25c-.5-.17-.87-.41-1.1-.72-.23-.31-.34-.71-.34-1.19,0-.58.16-1.03.47-1.37.31-.34.9-.67,1.76-1.01l7.99-3.1c1.3-.5,2.32-.86,3.06-1.06.74-.2,1.4-.31,1.98-.31,1.15,0,2.02.31,2.59.92.58.61.86,1.39.86,2.32ZM166.61,114.21c-2.69,0-4.81-.62-6.37-1.87-1.56-1.25-2.34-2.95-2.34-5.11s.78-3.82,2.34-5.04c1.56-1.22,3.68-1.84,6.37-1.84s4.81.61,6.37,1.84,2.34,2.9,2.34,5.04-.78,3.86-2.34,5.11c-1.56,1.25-3.68,1.87-6.37,1.87Z"/>
      <path class="cls-1" d="M200.37,120.62v24.98c0,.96.07,1.63.22,2.02.14.38.4.67.76.86l.72.4c.79.46,1.19,1.12,1.19,1.98,0,1.54-.92,2.3-2.77,2.3h-15.95c-.96,0-1.66-.19-2.09-.58-.43-.38-.65-.91-.65-1.58,0-.48.12-.9.36-1.26.24-.36.64-.66,1.19-.9l.79-.36c.36-.17.61-.45.76-.85s.22-1.07.22-2.03v-16.92c0-.77-.1-1.31-.31-1.64-.2-.32-.51-.55-.92-.67l-.79-.25c-.5-.17-.87-.41-1.1-.72-.23-.31-.34-.71-.34-1.19,0-.58.16-1.03.47-1.37.31-.34.9-.67,1.76-1.01l7.99-3.1c1.22-.48,2.21-.83,2.97-1.04.76-.22,1.49-.32,2.21-.32,1.08,0,1.9.31,2.47.92.56.61.85,1.39.85,2.32ZM199.08,129.4l-2.16-2.3,1.08-1.01c3.38-3.24,6.32-5.5,8.82-6.79,2.5-1.28,4.79-1.93,6.88-1.93,3.22,0,5.81,1.06,7.78,3.19s2.95,4.9,2.95,8.33v16.7c0,.96.07,1.64.22,2.03.14.4.4.68.76.85l.79.36c.55.24.95.54,1.19.9.24.36.36.78.36,1.26,0,.67-.22,1.2-.65,1.58-.43.38-1.13.58-2.09.58h-15.95c-1.85,0-2.77-.77-2.77-2.3,0-.86.4-1.52,1.19-1.98l.72-.4c.36-.19.61-.48.76-.86.14-.38.22-1.06.22-2.02v-14.54c0-1.54-.35-2.69-1.06-3.46-.71-.77-1.7-1.15-2.97-1.15-.79,0-1.62.16-2.48.47-.86.31-1.63.77-2.3,1.37l-1.26,1.12Z"/>
      <path class="cls-1" d="M251.82,117.38c4.08,0,7.64.77,10.69,2.32,3.05,1.55,5.42,3.71,7.11,6.5s2.54,6.02,2.54,9.72c0,3.41-.89,6.49-2.66,9.25-1.78,2.76-4.23,4.95-7.36,6.57-3.13,1.62-6.76,2.43-10.89,2.43s-7.64-.79-10.69-2.36c-3.05-1.57-5.42-3.75-7.11-6.53s-2.54-6-2.54-9.65.89-6.59,2.66-9.34c1.78-2.75,4.23-4.92,7.36-6.52,3.13-1.6,6.76-2.39,10.89-2.39ZM254.45,148.95c.91-.22,1.61-.85,2.09-1.91.48-1.06.7-2.59.65-4.61-.05-2.02-.41-4.57-1.08-7.67-.62-2.98-1.33-5.4-2.11-7.27-.78-1.87-1.63-3.22-2.54-4.03-.91-.82-1.86-1.1-2.84-.86-.91.22-1.61.85-2.09,1.91s-.69,2.59-.63,4.59c.06,2,.41,4.57,1.06,7.69.62,2.95,1.33,5.37,2.12,7.25.79,1.88,1.64,3.23,2.54,4.03.9.8,1.84,1.1,2.83.88Z"/>
      <path class="cls-1" d="M293.18,121.95c-1.42,0-2.47.3-3.15.9-.68.6-1.03,1.32-1.03,2.16,0,.5.1.98.29,1.42.19.44.64.85,1.33,1.21.7.36,1.8.67,3.31.94,4.46.74,7.86,1.73,10.19,2.97,2.33,1.24,3.92,2.69,4.77,4.37.85,1.68,1.28,3.59,1.28,5.72,0,3.91-1.36,6.98-4.09,9.2-2.72,2.22-6.75,3.33-12.08,3.33-1.82,0-3.28-.14-4.37-.43-1.09-.29-1.97-.58-2.63-.86-.66-.29-1.25-.43-1.78-.43-.58,0-1.06.14-1.44.43-.38.29-.77.58-1.15.86-.38.29-.88.43-1.48.43s-1.05-.17-1.35-.52c-.3-.35-.58-.97-.85-1.85l-1.87-6.37c-.38-1.27-.49-2.27-.32-3.01.17-.73.62-1.24,1.37-1.53.77-.29,1.44-.3,2.02-.04.58.26,1.13.79,1.66,1.58,1.1,1.61,2.25,2.94,3.44,4,1.19,1.06,2.44,1.85,3.74,2.38,1.31.53,2.66.79,4.05.79,1.61,0,2.81-.3,3.62-.9.8-.6,1.21-1.4,1.21-2.41,0-.62-.16-1.16-.49-1.62-.32-.46-.98-.87-1.98-1.24-1-.37-2.5-.74-4.52-1.1-3.48-.62-6.25-1.52-8.3-2.68-2.05-1.16-3.52-2.6-4.41-4.32-.89-1.72-1.33-3.71-1.33-5.99,0-2.42.65-4.53,1.96-6.32,1.31-1.79,3.1-3.17,5.36-4.16,2.27-.98,4.85-1.48,7.76-1.48,1.9,0,3.39.15,4.48.45,1.09.3,1.98.6,2.66.9.68.3,1.36.45,2.03.45s1.19-.15,1.64-.45c.44-.3.88-.6,1.31-.9.43-.3.94-.45,1.51-.45.53,0,.97.19,1.33.58.36.38.62,1.04.79,1.98l1.12,6.16c.22,1.22.23,2.14.05,2.75-.18.61-.62,1.06-1.31,1.35-.74.31-1.4.31-1.98-.02-.58-.32-1.16-.91-1.76-1.75-1.68-2.42-3.44-4.11-5.27-5.06-1.84-.95-3.62-1.42-5.35-1.42Z"/>
    </g>
  </g>
</svg>