<?xml version="1.0" encoding="UTF-8"?>
<svg id="Layer_2" data-name="Layer 2" xmlns="http://www.w3.org/2000/svg" viewBox="0 0 758.06 131.54">
  <defs>
    <style>
      .cls-1 {
        fill: #fbb040;
        stroke-width: 0px;
      }
    </style>
  </defs>
  <g id="Layer_1-2" data-name="Layer 1">
    <g>
      <path class="cls-1" d="M85.35,95.73c-.82,0-1.67.26-2.55.79-.88.53-2.17,1.55-3.87,3.08-2.99,2.64-6,4.41-9.02,5.32-3.02.91-6.41,1.36-10.16,1.36-5.16,0-9.77-1.16-13.81-3.48-4.05-2.32-7.23-5.76-9.55-10.34-2.32-4.58-3.48-10.26-3.48-17.07,0-4.81.56-8.78,1.67-11.92,1.11-3.14,2.56-5.47,4.35-7,1.79-1.52,3.71-2.29,5.76-2.29,2.58,0,4.66,1.1,6.25,3.3s2.38,5.21,2.38,9.02v2.82c0,4.52,1.36,8.23,4.09,11.13,2.73,2.9,6.82,4.36,12.27,4.36s10.13-1.55,13.51-4.66c3.37-3.11,5.06-6.89,5.06-11.35,0-5.04-1.58-9.62-4.75-13.72-3.17-4.11-7.67-7.38-13.51-9.81-5.84-2.43-12.77-3.65-20.81-3.65-10.03,0-18.73,2.05-26.09,6.16-7.36,4.11-13.05,9.74-17.07,16.89-4.02,7.16-6.03,15.28-6.03,24.37,0,8.51,2.08,15.94,6.25,22.3,4.16,6.37,9.81,11.32,16.94,14.87s15.18,5.32,24.15,5.32c8.21,0,15.43-1.38,21.64-4.13,6.22-2.76,11.07-6.41,14.56-10.95,3.49-4.54,5.24-9.43,5.24-14.65,0-1.7-.28-3.14-.84-4.31-.56-1.17-1.42-1.76-2.6-1.76Z"/>
      <path class="cls-1" d="M196.73,109.28c-.59,0-1.1.15-1.54.44-.44.29-.87.65-1.28,1.06-.53.53-1.1,1.05-1.72,1.58-.62.53-1.42.79-2.42.79-1.17,0-2.04-.37-2.6-1.1-.56-.73-.84-1.66-.84-2.77v-42.06c0-7.86-3.02-14.06-9.06-18.61-6.04-4.55-15.28-6.82-27.72-6.82-10.73,0-19.64,1.29-26.7,3.87-7.07,2.58-12.36,5.81-15.88,9.68s-5.28,7.74-5.28,11.61,1.3,7.2,3.92,9.46c2.61,2.26,6.58,3.39,11.92,3.39,6.28,0,11.1-1.35,14.47-4.05,3.37-2.7,5.06-6.51,5.06-11.44v-9.59c0-1.23.57-2.21,1.72-2.95,1.14-.73,2.48-1.1,4-1.1,2.05,0,3.68.68,4.88,2.02,1.2,1.35,1.8,3.14,1.8,5.37v27c-.12-.02-.23-.05-.35-.07-2.58-.47-5.6-.7-9.06-.7-13.14,0-23.35,2.33-30.62,7-7.27,4.66-10.91,11.01-10.91,19.05,0,6.04,2.51,11.09,7.52,15.13,5.01,4.05,11.63,6.07,19.84,6.07,6.1,0,11.83-1.14,17.2-3.43,4.08-1.74,7.41-4.02,10.02-6.85.95,2.33,2.74,4.38,5.38,6.14,4.13,2.76,9.46,4.13,15.97,4.13,5.51,0,10.13-1,13.86-2.99,3.72-1.99,6.53-4.41,8.4-7.26,1.88-2.84,2.82-5.56,2.82-8.14,0-1.11-.22-2.04-.66-2.77-.44-.73-1.16-1.1-2.16-1.1ZM138.57,112.4c-1.64-1.97-2.46-4.82-2.46-8.58s.84-6.32,2.51-8.23c1.67-1.9,3.94-2.86,6.82-2.86,1.29,0,2.48.15,3.56.44.16.04.33.12.48.17v20.99c-1.38.66-2.85,1.01-4.4,1.01-2.7,0-4.87-.98-6.51-2.95Z"/>
      <path class="cls-1" d="M370.15,118.51l-1.94-.88c-.88-.41-1.5-1.1-1.85-2.07s-.53-2.62-.53-4.97v-40.82c0-8.39-2.33-15.18-6.99-20.37-4.66-5.19-10.93-7.79-18.78-7.79-5.1,0-10.63,1.57-16.59,4.71-4.91,2.59-10.62,6.83-17.1,12.66-1.16-3.64-2.96-6.84-5.42-9.59-4.66-5.19-10.93-7.79-18.78-7.79-5.1,0-10.63,1.57-16.59,4.71-4.51,2.38-9.69,6.13-15.53,11.25v-8.04c0-2.29-.69-4.18-2.07-5.68-1.38-1.5-3.39-2.24-6.03-2.24-1.76,0-3.56.26-5.41.79-1.85.53-4.27,1.38-7.26,2.55l-19.53,7.57c-2.11.82-3.55,1.64-4.31,2.46-.76.82-1.14,1.94-1.14,3.34,0,1.17.28,2.14.84,2.9.56.76,1.45,1.35,2.68,1.76l1.94.62c1,.29,1.74.84,2.24,1.63.5.79.75,2.13.75,4v41.35c0,2.35-.18,4-.53,4.97s-.97,1.66-1.85,2.07l-1.94.88c-1.35.59-2.32,1.32-2.9,2.2-.59.88-.88,1.91-.88,3.08,0,1.64.53,2.93,1.58,3.87,1.06.94,2.76,1.41,5.1,1.41h38.98c4.52,0,6.77-1.88,6.77-5.63,0-2.11-.97-3.72-2.9-4.84l-1.76-.97c-.88-.47-1.5-1.17-1.85-2.11-.35-.94-.53-2.58-.53-4.93v-42.39c1.62-1.43,3.39-2.53,5.32-3.28,1.97-.76,3.92-1.14,5.85-1.14,3.11,0,5.45.94,7.04,2.82,1.58,1.88,2.37,4.69,2.37,8.45v35.55c0,2.35-.18,3.99-.53,4.93-.35.94-.97,1.64-1.85,2.11l-1.76.97c-1.94,1.12-2.9,2.73-2.9,4.84,0,3.76,2.26,5.63,6.77,5.63h37.83c4.52,0,6.77-1.88,6.77-5.63,0-2.11-.97-3.72-2.9-4.84l-1.76-.97c-.88-.47-1.5-1.17-1.85-2.11-.35-.94-.53-2.58-.53-4.93v-40.82c0-.52-.04-1.01-.05-1.52,1.63-1.45,3.42-2.56,5.38-3.32,1.97-.76,3.92-1.14,5.85-1.14,3.11,0,5.45.94,7.04,2.82,1.58,1.88,2.37,4.69,2.37,8.45v35.55c0,2.35-.18,3.99-.53,4.93-.35.94-.97,1.64-1.85,2.11l-1.76.97c-1.94,1.12-2.9,2.73-2.9,4.84,0,3.76,2.26,5.63,6.77,5.63h38.98c2.34,0,4.05-.47,5.1-1.41,1.06-.94,1.58-2.23,1.58-3.87,0-1.17-.29-2.2-.88-3.08-.59-.88-1.55-1.61-2.9-2.2Z"/>
      <path class="cls-1" d="M391.61,29.3c3.81,3.05,9,4.58,15.57,4.58s11.76-1.52,15.57-4.58c3.81-3.05,5.72-7.21,5.72-12.49s-1.91-9.33-5.72-12.32-9-4.49-15.57-4.49-11.76,1.5-15.57,4.49c-3.81,2.99-5.72,7.1-5.72,12.32s1.91,9.44,5.72,12.49Z"/>
      <path class="cls-1" d="M432.09,118.51l-1.94-.88c-.88-.41-1.5-1.1-1.85-2.07s-.53-2.62-.53-4.97v-61.06c0-2.29-.7-4.18-2.11-5.68-1.41-1.5-3.52-2.24-6.33-2.24-1.41,0-3.02.25-4.84.75-1.82.5-4.31,1.36-7.48,2.6l-19.53,7.57c-2.11.82-3.55,1.64-4.31,2.46-.76.82-1.14,1.94-1.14,3.34,0,1.17.28,2.14.84,2.9.56.76,1.45,1.35,2.68,1.76l1.94.62c1,.29,1.74.84,2.24,1.63.5.79.75,2.13.75,4v41.35c0,2.35-.18,4-.53,4.97s-.97,1.66-1.85,2.07l-1.94.88c-1.35.59-2.32,1.32-2.9,2.2-.59.88-.88,1.91-.88,3.08,0,1.64.53,2.93,1.58,3.87,1.06.94,2.76,1.41,5.1,1.41h40.12c2.34,0,4.05-.47,5.1-1.41,1.05-.94,1.58-2.23,1.58-3.87,0-1.17-.29-2.2-.88-3.08-.59-.88-1.55-1.61-2.9-2.2Z"/>
      <path class="cls-1" d="M552.8,118.51l-1.94-.88c-.88-.41-1.5-1.1-1.85-2.07-.35-.97-.53-2.62-.53-4.97v-40.82c0-8.39-2.41-15.18-7.22-20.37s-11.14-7.79-19-7.79c-5.1,0-10.7,1.57-16.8,4.71-4.62,2.38-9.88,6.14-15.75,11.27v-8.05c0-2.29-.69-4.18-2.07-5.68-1.38-1.5-3.39-2.24-6.03-2.24-1.76,0-3.56.26-5.41.79-1.85.53-4.27,1.38-7.26,2.55l-19.53,7.57c-2.11.82-3.55,1.64-4.31,2.46-.76.82-1.14,1.94-1.14,3.34,0,1.17.28,2.14.84,2.9.56.76,1.45,1.35,2.68,1.76l1.94.62c1,.29,1.74.84,2.24,1.63.5.79.75,2.13.75,4v41.35c0,2.35-.18,4-.53,4.97s-.97,1.66-1.85,2.07l-1.94.88c-1.35.59-2.32,1.32-2.9,2.2-.59.88-.88,1.91-.88,3.08,0,1.64.53,2.93,1.58,3.87,1.06.94,2.76,1.41,5.1,1.41h38.98c4.52,0,6.77-1.88,6.77-5.63,0-2.11-.97-3.72-2.9-4.84l-1.76-.97c-.88-.47-1.5-1.17-1.85-2.11-.35-.94-.53-2.58-.53-4.93v-42.38c1.62-1.43,3.47-2.53,5.54-3.28,2.11-.76,4.13-1.14,6.07-1.14,3.11,0,5.53.94,7.26,2.82,1.73,1.88,2.6,4.69,2.6,8.45v35.55c0,2.35-.18,3.99-.53,4.93-.35.94-.97,1.64-1.85,2.11l-1.76.97c-1.94,1.12-2.9,2.73-2.9,4.84,0,3.76,2.26,5.63,6.77,5.63h38.98c2.34,0,4.05-.47,5.1-1.41,1.06-.94,1.58-2.23,1.58-3.87,0-1.17-.29-2.2-.88-3.08-.59-.88-1.55-1.61-2.9-2.2Z"/>
      <path class="cls-1" d="M641.57,47.29c-7.45-3.78-16.16-5.68-26.13-5.68s-18.96,1.95-26.61,5.85c-7.66,3.9-13.65,9.21-17.99,15.93-4.34,6.72-6.51,14.33-6.51,22.83s2.07,16.78,6.2,23.58c4.13,6.8,9.93,12.13,17.38,15.97,7.45,3.84,16.16,5.76,26.13,5.76s18.96-1.98,26.61-5.94c7.66-3.96,13.65-9.31,17.99-16.06,4.34-6.74,6.51-14.28,6.51-22.61,0-9.03-2.07-16.95-6.2-23.75-4.13-6.8-9.93-12.1-17.38-15.88ZM626.96,114.11c-1.17,2.58-2.87,4.13-5.1,4.66-2.41.53-4.71-.19-6.91-2.16-2.2-1.96-4.27-5.25-6.2-9.85-1.94-4.6-3.67-10.51-5.19-17.73-1.58-7.62-2.45-13.89-2.6-18.78-.15-4.9.37-8.64,1.54-11.22s2.87-4.14,5.1-4.66c2.4-.59,4.72.12,6.95,2.11,2.23,2,4.3,5.28,6.2,9.85,1.91,4.58,3.62,10.5,5.15,17.77,1.64,7.57,2.52,13.81,2.64,18.74.12,4.93-.41,8.68-1.58,11.26Z"/>
      <path class="cls-1" d="M754.93,86.93c-2.08-4.11-5.97-7.67-11.66-10.69-5.69-3.02-13.99-5.44-24.9-7.26-3.69-.65-6.39-1.41-8.09-2.29-1.7-.88-2.79-1.86-3.26-2.95-.47-1.08-.7-2.24-.7-3.48,0-2.05.84-3.81,2.51-5.28,1.67-1.47,4.24-2.2,7.7-2.2,4.22,0,8.58,1.16,13.07,3.48,4.49,2.32,8.78,6.44,12.89,12.36,1.47,2.05,2.9,3.48,4.31,4.27,1.41.79,3.02.81,4.84.04,1.7-.7,2.77-1.8,3.21-3.3.44-1.5.4-3.74-.13-6.73l-2.73-15.05c-.41-2.29-1.05-3.9-1.94-4.84-.88-.94-1.97-1.41-3.26-1.41-1.41,0-2.64.37-3.69,1.1-1.06.73-2.13,1.47-3.21,2.2-1.09.73-2.42,1.1-4,1.1s-3.3-.37-4.97-1.1c-1.67-.73-3.84-1.47-6.51-2.2-2.67-.73-6.32-1.1-10.95-1.1-7.1,0-13.42,1.2-18.96,3.61-5.54,2.41-9.91,5.79-13.11,10.16-3.2,4.37-4.79,9.52-4.79,15.44,0,5.57,1.08,10.46,3.25,14.65,2.17,4.19,5.76,7.71,10.78,10.56,5.02,2.85,11.77,5.03,20.28,6.56,4.93.88,8.61,1.77,11.04,2.68,2.43.91,4.05,1.92,4.84,3.03.79,1.11,1.19,2.43,1.19,3.96,0,2.46-.98,4.43-2.95,5.9-1.97,1.47-4.91,2.2-8.84,2.2-3.4,0-6.7-.64-9.9-1.94-3.2-1.29-6.25-3.23-9.15-5.81-2.9-2.58-5.71-5.84-8.4-9.77-1.29-1.94-2.64-3.23-4.05-3.87-1.41-.64-3.05-.62-4.93.09-1.82.7-2.93,1.95-3.34,3.74-.41,1.79-.15,4.24.79,7.35l4.57,15.57c.65,2.17,1.33,3.68,2.07,4.53.73.85,1.83,1.28,3.3,1.28s2.67-.35,3.61-1.05c.94-.7,1.88-1.41,2.82-2.11.94-.7,2.11-1.06,3.52-1.06,1.29,0,2.74.35,4.36,1.06,1.61.7,3.75,1.41,6.42,2.11,2.67.7,6.23,1.05,10.69,1.05,13.02,0,22.86-2.71,29.52-8.14,6.66-5.42,9.99-12.92,9.99-22.48,0-5.22-1.04-9.88-3.12-13.99Z"/>
    </g>
  </g>
</svg>